<svg width="271" height="230" viewBox="0 0 271 230" fill="none" xmlns="http://www.w3.org/2000/svg">
<g clip-path="url(#clip0_117_352)">
<path d="M219.317 146.348C219.559 146.375 219.802 146.312 220.014 146.17C220.225 146.027 220.394 145.811 220.498 145.551C220.603 145.29 220.637 144.998 220.596 144.714C220.556 144.43 220.442 144.168 220.271 143.962C220.247 143.82 220.23 143.718 220.205 143.576C220.217 143.546 220.229 143.516 220.241 143.486C220.513 142.815 220.945 142.254 221.485 141.874C222.025 141.494 222.647 141.311 223.274 141.348C223.902 141.385 224.506 141.641 225.01 142.084C225.515 142.526 225.898 143.136 226.112 143.835C226.964 146.627 228.079 149.438 228.266 152.351C228.349 153.638 228.242 154.932 227.95 156.177C230.435 150.474 231.855 144.206 232.114 137.797C232.178 136.189 232.166 134.578 232.078 132.971C232.004 131.654 231.882 130.343 231.712 129.039C230.778 121.964 228.441 115.252 224.891 109.454C223.114 108.174 221.709 106.28 220.869 104.027C220.564 103.217 220.359 102.359 220.262 101.479C220.467 101.523 220.675 101.554 220.88 101.582C220.944 101.589 221.011 101.597 221.075 101.604L221.099 101.607C221.325 101.631 221.552 101.578 221.753 101.453C221.953 101.329 222.119 101.138 222.231 100.904C222.342 100.671 222.394 100.404 222.38 100.136C222.366 99.8679 222.287 99.6104 222.153 99.3944C222.069 99.26 221.985 99.1257 221.902 98.9914C221.774 98.7842 221.644 98.5808 221.517 98.3737C221.502 98.3538 221.488 98.333 221.475 98.3113C221.329 98.075 221.183 97.8428 221.036 97.6065C221.34 97.1015 221.738 96.6863 222.2 96.3935C223.797 95.4006 225.914 96.2659 226.972 97.9938C228.033 99.7218 228.153 102.071 227.68 104.13C227.226 105.88 226.523 107.526 225.602 108.996C225.682 109.129 225.765 109.258 225.844 109.39C227.293 111.823 228.538 114.418 229.56 117.138C229.403 114.145 229.849 111.151 230.86 108.401C231.875 105.843 233.673 103.741 235.269 101.569C237.186 98.9598 240.852 100.347 241.036 103.798C241.037 103.831 241.039 103.865 241.041 103.898C240.811 104.035 240.586 104.182 240.365 104.338C240.087 104.536 239.866 104.829 239.731 105.179C239.597 105.528 239.554 105.917 239.61 106.296C239.665 106.674 239.815 107.024 240.042 107.299C240.268 107.574 240.559 107.762 240.877 107.839L240.909 107.846C240.792 108.797 240.614 109.737 240.376 110.656C239.692 113.22 238.567 115.59 237.073 117.615C235.579 119.641 233.748 121.28 231.694 122.428C231.56 122.501 231.428 122.574 231.294 122.642C232.276 126.503 232.83 130.498 232.943 134.528C233.003 136.905 232.9 139.284 232.636 141.641L232.65 141.558C233.185 138.95 234.464 136.64 236.271 135.02C238.953 132.649 242.639 131.925 245.505 130.059C245.81 129.85 246.159 129.749 246.511 129.767C246.863 129.786 247.203 129.923 247.491 130.163C247.78 130.402 248.004 130.735 248.138 131.121C248.272 131.507 248.31 131.93 248.248 132.341C248.243 132.37 248.238 132.399 248.233 132.428C247.809 132.606 247.396 132.814 246.994 133.052C246.765 133.19 246.539 133.336 246.318 133.492C246.041 133.691 245.82 133.984 245.685 134.333C245.55 134.682 245.508 135.072 245.563 135.45C245.619 135.829 245.769 136.178 245.995 136.454C246.221 136.729 246.512 136.917 246.83 136.993L246.863 137.001C246.886 137.006 246.906 137.011 246.93 137.017C246.141 138.984 245.072 140.777 243.77 142.315C242.163 144.176 240.252 145.628 238.154 146.583C236.056 147.538 233.816 147.975 231.57 147.868L231.566 147.868C230.834 150.971 229.831 153.975 228.574 156.832L219.161 156.313C219.132 156.187 219.107 156.057 219.082 155.932C219.95 156.045 220.827 156.031 221.693 155.892C221.035 154.838 220.377 153.777 219.718 152.724C219.703 152.704 219.69 152.683 219.677 152.662C219.343 152.123 219.006 151.588 218.672 151.049L218.672 151.048C218.715 149.455 218.932 147.876 219.316 146.348L219.317 146.348Z" fill="#F2F2F2"/>
<path d="M29.6692 49.9661C29.4288 50.0104 29.1827 49.9661 28.9643 49.8392C28.7459 49.7123 28.5657 49.5089 28.4481 49.2567C28.3305 49.0045 28.2812 48.7155 28.307 48.429C28.3327 48.1425 28.4322 47.8723 28.5919 47.655C28.6088 47.5112 28.6209 47.4079 28.6378 47.264C28.6243 47.2349 28.6108 47.2059 28.5973 47.1768C28.2913 46.5273 27.8301 45.9994 27.2716 45.6593C26.7131 45.3192 26.0822 45.1821 25.4581 45.2653C24.834 45.3485 24.2446 45.6482 23.7639 46.1267C23.2831 46.6053 22.9326 47.2414 22.7562 47.9552C22.0508 50.8042 21.0848 53.6914 21.0499 56.6121C21.035 57.903 21.2093 59.1873 21.565 60.4077C18.7877 54.8982 17.0431 48.746 16.4497 42.3681C16.3022 40.7675 16.2304 39.1584 16.2346 37.5482C16.2391 36.2281 16.2925 34.9111 16.3949 33.5972C16.9573 26.4671 18.94 19.5967 22.1801 13.5502C23.8879 12.1433 25.1905 10.1503 25.9123 7.83969C26.1743 7.0088 26.3334 6.13735 26.3846 5.25247C26.1827 5.31066 25.9764 5.35734 25.7731 5.39961C25.7096 5.41178 25.6429 5.42442 25.5794 5.43663L25.5555 5.44101C25.3315 5.48196 25.1023 5.44537 24.8955 5.33565C24.6886 5.22592 24.513 5.04775 24.3897 4.82256C24.2664 4.59737 24.2007 4.33477 24.2004 4.06639C24.2002 3.798 24.2655 3.53527 24.3885 3.30981C24.4651 3.16955 24.5417 3.02935 24.6184 2.8892C24.7345 2.6731 24.8543 2.46055 24.9703 2.24448C24.984 2.2236 24.9968 2.20179 25.0085 2.17919C25.1421 1.93266 25.2761 1.69014 25.4097 1.44361C25.0802 0.96177 24.6612 0.576575 24.1853 0.318054C22.5389 -0.556062 20.4718 0.462451 19.5061 2.26439C18.537 4.06674 18.5391 6.4199 19.1188 8.44115C19.6637 10.1544 20.4509 11.7453 21.4466 13.1458C21.3743 13.2838 21.2983 13.4183 21.2261 13.5564C19.9063 16.0904 18.7995 18.7715 17.9214 21.5613C17.9218 18.5626 17.321 15.6067 16.1686 12.9366C15.0214 10.4576 13.1172 8.49061 11.4111 6.43954C9.36184 3.97589 5.77537 5.62824 5.77183 9.08636C5.77179 9.11984 5.77183 9.1533 5.77194 9.18675C6.00841 9.30689 6.24101 9.43679 6.46974 9.57643C6.75728 9.75399 6.99283 10.0303 7.14551 10.3691C7.2982 10.7079 7.3609 11.0934 7.3254 11.4751C7.2899 11.8568 7.15786 12.2169 6.94658 12.5083C6.73529 12.7996 6.45462 13.0086 6.14134 13.1078L6.10925 13.1179C6.27596 14.0586 6.50281 14.9829 6.78784 15.8828C7.60476 18.3923 8.85067 20.675 10.4475 22.5876C12.0443 24.5003 13.9575 26.0016 16.0672 26.9976C16.2055 27.0603 16.3404 27.1234 16.4783 27.182C15.6991 31.107 15.3542 35.1353 15.4523 39.1656C15.5166 41.5426 15.7431 43.9095 16.1296 46.2432L16.1119 46.161C15.4415 43.597 14.0444 41.3854 12.1566 39.8999C9.35607 37.7302 5.63941 37.2771 2.68131 35.6242C2.36597 35.4381 2.01226 35.3626 1.6619 35.4067C1.31153 35.4508 0.979122 35.6126 0.703878 35.8731C0.428634 36.1336 0.222033 36.4819 0.108444 36.8768C-0.0051441 37.2718 -0.0209844 37.697 0.0627937 38.1023C0.0691976 38.131 0.0756684 38.1598 0.0822015 38.1886C0.513957 38.3347 0.937601 38.5126 1.35068 38.7211C1.58715 38.8413 1.81974 38.9712 2.04847 39.1108C2.33602 39.2884 2.57157 39.5646 2.72425 39.9034C2.87693 40.2422 2.93963 40.6278 2.90413 41.0095C2.86863 41.3912 2.73659 41.7513 2.52531 42.0427C2.31403 42.334 2.03335 42.543 1.72007 42.6422L1.68796 42.6523C1.66483 42.6593 1.64505 42.6659 1.62195 42.6729C2.51183 44.5793 3.67219 46.2901 5.05218 47.7304C6.7533 49.4698 8.73651 50.7795 10.8802 51.579C13.0239 52.3786 15.283 52.6512 17.5188 52.3802L17.5222 52.3798C18.4154 55.4227 19.5732 58.3475 20.977 61.107L30.3442 59.9005C30.3665 59.7729 30.385 59.6418 30.4039 59.5146C29.5428 59.6908 28.6667 59.7416 27.7951 59.6656C28.3974 58.5662 28.9989 57.4589 29.6011 56.3595C29.6149 56.3386 29.6276 56.3168 29.6393 56.2942C29.9443 55.732 30.2531 55.1732 30.5581 54.611L30.5583 54.6103C30.4315 53.0236 30.1328 51.4627 29.6695 49.9663L29.6692 49.9661Z" fill="#F2F2F2"/>
<path d="M159.085 45.8553C159.549 46.0064 159.979 46.276 160.345 46.6452C160.711 47.0143 161.005 47.4741 161.205 47.992C161.404 48.51 161.506 49.0735 161.502 49.6429C161.498 50.2124 161.389 50.7738 161.182 51.2878L166.208 57.9058L163.557 62.5041L156.569 53.0401C155.863 52.5711 155.327 51.8116 155.062 50.9056C154.797 49.9996 154.822 49.01 155.133 48.1244C155.443 47.2388 156.016 46.5187 156.745 46.1005C157.473 45.6823 158.306 45.595 159.085 45.8553Z" fill="#A0616A"/>
<path d="M206.144 62.1059C205.691 61.2325 205.097 60.4736 204.396 59.8727C203.694 59.2719 202.9 58.8409 202.057 58.6045C201.215 58.3682 200.341 58.331 199.487 58.4953C198.633 58.6595 197.814 59.0219 197.078 59.5617L180.546 71.6864L162.714 53.7359L158.277 58.6277L177.977 88.8952L203.581 73.0888C202.983 73.4577 206.866 63.4976 206.144 62.1059Z" fill="#CCCCCC"/>
<path d="M173.395 102.421C173.397 112.09 171.79 121.664 168.666 130.597C165.542 139.53 160.963 147.647 155.189 154.483C149.416 161.32 142.562 166.743 135.019 170.442C127.475 174.141 119.39 176.044 111.225 176.042C76.8904 176.042 49.0557 143.08 49.0557 102.421C49.0498 94.5123 50.1204 86.6541 52.2264 79.1487C56.361 64.4909 64.2821 51.7431 74.8696 42.7079C85.4571 33.6728 98.1751 28.8076 111.225 28.8002C122.48 28.7956 133.525 32.4104 143.181 39.2587C152.836 46.107 160.74 55.9318 166.049 67.6843C167.365 70.5839 168.513 73.5861 169.485 76.6702C169.62 77.0996 169.751 77.529 169.879 77.9626V77.9667C170.449 79.8726 170.951 81.814 171.385 83.7909C172.724 89.8739 173.399 96.1349 173.395 102.421Z" fill="#3F3D56"/>
<path d="M104.423 52.75C101.63 50.9608 98.5275 49.9509 95.354 49.7971C92.1804 49.6434 89.0191 50.3499 86.1111 51.8628C83.5507 53.1823 80.8547 55.5494 80.0006 59.8239C83.4551 57.4097 87.9269 61.2242 88.8158 67.3434L88.6083 67.4112C88.1388 71.6496 89.1869 76.2641 91.216 78.8922C91.4825 76.1624 92.9982 74.3044 94.4891 73.1438C95.98 71.9833 97.6293 71.1402 98.7673 69.1453C100.116 66.7803 100.459 63.3238 100.995 60.1707C101.531 57.0176 102.547 53.6286 104.423 52.75Z" fill="white"/>
<path d="M85.0864 88.8176C84.1297 90.519 82.8518 91.5866 81.7051 92.9159C80.5619 94.2492 79.4739 96.0488 79.246 98.3597C79.1009 99.8403 79.3254 101.345 79.2943 102.842C79.2632 104.339 78.8418 106.024 77.9818 106.397C76.6245 106.977 75.5883 103.992 74.193 103.783C73.0842 103.62 72.0861 105.685 72.4073 107.476C72.7285 109.268 74.2379 110.061 75.1048 108.892C75.8888 110.45 75.3362 113.276 74.1584 113.755C74.034 114.736 73.9098 115.714 73.7888 116.695C70.8116 114.229 67.8033 111.722 65.2716 108.11C62.456 104.128 60.7096 99.2397 60.2566 94.0733C59.9285 89.9219 60.4155 85.1734 58.806 81.9791C57.5177 79.4228 55.3072 78.8583 53.3178 79.0179C52.9551 79.0465 52.589 79.0956 52.2264 79.1488C53.3996 74.9759 54.8897 70.9375 56.6784 67.0831C57.0832 66.8773 57.4593 66.6002 57.794 66.261C59.6453 64.4 60.4673 60.6331 61.9697 58.0277C62.0664 57.86 62.1666 57.6964 62.2702 57.5369C63.8072 55.1606 65.8657 53.9376 67.8551 52.8006C72.2588 50.2689 76.7902 47.7044 81.4392 48.0561L80.1163 48.2075C78.5725 53.3282 77.0275 58.449 75.4813 63.5697C75.2464 64.355 75.0092 65.1416 74.7698 65.9297C73.8925 68.8418 72.9876 71.9421 73.1223 75.2018C73.2017 77.1323 73.7681 79.1937 74.8457 79.8563C75.8508 80.4698 76.9491 79.7173 77.9196 78.9729C78.3307 78.662 78.7383 78.3511 79.1492 78.0362C80.624 76.9114 82.2577 75.7581 83.8154 76.5106C85.2419 77.1978 86.2953 79.4923 86.4956 81.9668C86.6793 84.3722 86.1837 86.7817 85.0864 88.8176Z" fill="white"/>
<path d="M93.8578 123.778C89.5505 120.638 85.2432 117.497 80.9359 114.357L81.009 114.134C78.3309 115.341 77.219 120.979 77.6616 125.589C78.1042 130.199 79.605 134.32 80.3631 138.812C81.3854 144.959 80.9995 151.318 79.2456 157.229C84.9095 149.703 89.922 141.524 94.2078 132.814C94.8065 131.716 95.2628 130.519 95.5612 129.26C95.8349 127.922 95.7928 126.313 95.2448 125.239C94.8922 124.623 94.4155 124.121 93.8578 123.778Z" fill="white"/>
<path d="M76.8583 66.6421C76.401 67.8599 76.225 69.4837 76.64 70.7438C77.0639 72.0306 77.96 72.6122 78.7851 73.0964L81.1651 74.4934C81.9569 74.9581 82.8103 75.4276 83.6174 75.0452C84.591 74.584 85.266 72.7766 85.0914 71.0987C84.9055 69.3132 83.9551 68.0851 83.0761 67.0392C81.8461 65.5755 80.616 64.1119 79.386 62.6483L78.6927 63.6538C77.9429 64.5198 77.3227 65.5303 76.8583 66.6421Z" fill="white"/>
<path d="M160.636 85.7296C161.707 86.0282 162.778 86.3268 163.848 86.6253C163.662 90.9077 161.869 94.8709 159.465 96.3065C158.464 96.9037 157.348 97.1245 156.519 98.2411C155.77 99.2554 155.39 100.834 155.041 102.343C154.43 104.977 153.818 107.611 153.207 110.245C152.551 113.084 151.708 116.237 150.002 117.26C148.537 118.139 146.862 117.064 145.736 115.26C144.61 113.456 143.923 111.031 143.256 108.667C143.298 111.243 142.286 113.771 140.853 114.667C139.416 115.562 137.668 114.753 136.708 112.753C136.017 111.317 135.731 109.423 135.054 107.967C134.377 106.511 132.957 105.677 132.218 107.043C131.731 107.951 131.793 109.341 131.551 110.495C131.175 112.286 130.035 113.411 128.906 113.509C127.78 113.607 126.681 112.838 125.738 111.796C123.794 109.636 122.361 106.209 121.805 102.401C121.559 100.703 121.49 98.8546 121.915 97.2635C122.34 95.6726 123.366 94.4455 124.385 94.7482C125.055 93.0712 123.732 90.8463 122.54 91.0426C121.345 91.2389 120.409 92.7563 119.428 93.922C118.451 95.0877 117.083 95.9343 116.099 94.7768C116.106 95.8525 115.366 96.5642 114.728 96.4742C114.092 96.3883 113.526 95.783 112.942 95.3535C110.687 93.6888 107.823 94.7932 106.221 97.9425C107.222 92.8954 108.69 87.1039 111.768 85.9177C113.025 85.431 114.396 85.8318 115.584 84.9893C117.688 83.4964 118.112 77.8562 116.296 75.529C116.527 77.7294 116.482 80.298 115.501 81.8031C114.52 83.3083 112.462 82.3266 112.586 80.1017C112.303 81.6354 110.894 81.8686 110.244 80.6906C109.592 79.5127 109.647 77.5863 110.11 76.1793C110.573 74.7723 111.36 73.7621 112.123 72.7927C113.764 70.7109 115.429 68.6045 117.328 67.2957C119.231 65.9869 121.428 65.5452 123.335 66.8458C124.34 67.5329 125.224 68.6782 126.25 69.2835C127.275 69.8929 128.578 69.8152 129.258 68.3918C130.021 66.8049 129.662 64.449 129.945 62.4653C130.453 58.9602 133.413 57.3201 135.054 59.635C133.827 59.2628 132.56 60.9807 132.408 63.0625C132.252 65.1443 133.14 67.2467 134.328 67.8765C136.325 68.9236 138.279 66.2895 139.789 63.8519C141.364 61.2997 142.941 58.7489 144.521 56.1994C144.773 55.7653 145.056 55.3576 145.367 54.9806C145.861 54.4096 146.521 54.0826 147.212 54.0659C147.902 54.0492 148.573 54.344 149.087 54.8906C150.682 56.4325 151.432 59.5942 152.741 61.7701C154.64 64.9317 157.483 65.7006 160.129 66.3141C162.101 66.7681 164.074 67.2248 166.049 67.6843C167.365 70.5839 168.513 73.5861 169.485 76.6701C166.142 78.3511 163.057 81.4964 160.636 85.7296Z" fill="white"/>
<path d="M167.012 134.941C165.532 138.499 163.811 141.909 161.866 145.138C160.622 144.508 159.286 145.633 158.122 146.688C156.906 147.792 155.445 148.868 154.198 147.862C152.924 146.831 152.513 143.948 152.917 141.661C153.321 139.379 154.33 137.563 155.307 135.837C156.343 134.005 157.452 132.103 158.892 131.391C160.336 130.679 162.191 131.685 162.612 134.115L163.634 134.074C163.061 133.142 163.361 131.211 164.132 130.872C165.019 130.475 165.789 131.919 166.314 133.195C166.549 133.771 166.788 134.352 167.012 134.941Z" fill="white"/>
<path d="M127.857 117.665C125.66 117.829 123.919 114.625 122.762 111.474C121.606 108.322 120.55 104.718 118.568 103.114C117.435 102.198 116.143 102.072 114.914 101.628C113.685 101.184 112.399 100.265 111.812 98.3929L110.418 97.726C108.577 98.9518 106.711 100.2 105.125 102.195C103.346 104.433 102.238 107.302 101.972 110.359C101.705 113.663 102.689 117.347 104.526 118.589C105.978 119.569 107.668 118.951 109.138 119.849C110.976 120.971 112.066 124.229 112.479 127.447C112.892 130.664 112.788 134.008 113.083 137.262C113.378 140.516 114.193 143.902 115.878 145.569C117.986 147.656 121.08 145.922 122.026 142.123C122.49 140.26 122.474 138.158 122.821 136.223C123.432 132.817 125.081 130.29 126.389 127.496C127.697 124.702 128.727 120.908 127.857 117.665Z" fill="white"/>
<path d="M106.143 84.1956C106.348 84.419 106.539 84.6594 106.715 84.915C106.897 85.2871 106.99 85.711 106.984 86.1411C106.978 86.5712 106.873 86.9911 106.68 87.3556C106.945 87.3378 107.203 87.2551 107.44 87.1128C107.676 86.9706 107.885 86.7719 108.053 86.5292C108.454 85.9883 108.807 85.3997 109.106 84.773C109.33 84.3402 109.569 83.755 109.416 83.241C109.313 82.8902 109.067 82.7405 108.895 82.4767C108.622 82.0585 108.555 81.3942 108.413 80.8202C108.109 79.5805 107.378 78.6689 106.585 78.5386L106.695 78.5635C106.364 78.6979 106.133 79.3208 106.206 79.8812C106.273 80.3916 106.55 80.8153 106.522 81.3359C106.483 82.0844 105.851 82.4357 105.812 83.1843C105.806 83.5598 105.925 83.9231 106.143 84.1956Z" fill="white"/>
<path d="M102.378 71.4754C102.381 71.4744 102.385 71.4742 102.388 71.4732C102.456 71.4002 102.519 71.3212 102.576 71.2367L102.378 71.4754Z" fill="#E6E6E6"/>
<path d="M103.037 74.989C103.523 74.619 103.794 73.5958 103.634 72.7394C103.474 71.8882 102.909 71.316 102.388 71.4732C102.237 71.6547 102.049 71.7877 101.842 71.8597C101.636 71.9317 101.417 71.9403 101.207 71.8848C100.885 71.7866 100.531 71.5336 100.252 71.8211C100.092 72.0357 99.9801 72.2944 99.9264 72.5735C99.823 72.9495 99.7195 73.3255 99.6161 73.7014C99.567 73.836 99.5542 73.9853 99.5794 74.1288C99.5992 74.1863 99.6312 74.2369 99.6723 74.2755C99.7133 74.3142 99.7621 74.3397 99.8139 74.3496C100.434 74.5662 101.055 74.7829 101.676 74.9995C102.128 75.1574 102.616 75.3095 103.037 74.989Z" fill="white"/>
<path d="M149.886 123.497C149.599 122.94 149.312 122.384 149.025 121.828C148.743 121.184 148.358 120.611 147.891 120.142C147.788 120.04 147.67 119.964 147.542 119.917C147.414 119.87 147.279 119.854 147.146 119.87C147.012 119.886 146.883 119.933 146.766 120.009C146.648 120.085 146.544 120.188 146.461 120.312L146.496 120.629C147.149 121.601 147.841 122.68 148.007 124.122C148.072 124.69 148.05 125.278 148.107 125.849C148.164 126.42 148.327 127.012 148.639 127.258C149.09 127.615 149.621 127.089 149.942 126.446C150.23 125.918 150.358 125.29 150.308 124.665C150.236 124.245 150.093 123.848 149.886 123.497Z" fill="white"/>
<path d="M162.653 102.256C162.736 101.612 162.819 100.968 162.902 100.323C163.036 99.6157 163.053 98.8838 162.951 98.1685C162.928 98.0123 162.878 97.8631 162.806 97.7298C162.733 97.5964 162.639 97.4816 162.528 97.3921C162.418 97.3026 162.293 97.2401 162.162 97.2084C162.031 97.1767 161.896 97.1764 161.764 97.2075L161.618 97.4771C161.59 98.719 161.533 100.072 160.875 101.302C160.616 101.786 160.279 102.219 160.012 102.7C159.746 103.18 159.549 103.757 159.653 104.183C159.804 104.801 160.496 104.802 161.092 104.555C161.599 104.37 162.039 103.989 162.34 103.472C162.514 103.096 162.62 102.682 162.653 102.256Z" fill="#E6E6E6"/>
<path d="M154.386 124.22C154.526 123.743 154.324 123.195 154.281 122.668C154.26 121.986 154.413 121.313 154.719 120.735C155.023 120.19 155.253 119.592 155.401 118.963C155.464 118.677 155.453 118.374 155.369 118.095C155.274 117.843 155.044 117.728 154.912 117.928L155.194 118.143C154.813 118.062 154.421 118.085 154.048 118.209C153.836 118.305 153.646 118.461 153.495 118.662C153.343 118.864 153.236 119.106 153.18 119.368C153.133 119.776 153.057 120.178 152.952 120.57C152.784 120.98 152.458 121.117 152.253 121.476C152.113 121.795 152.043 122.15 152.048 122.51C152.053 122.869 152.133 123.221 152.282 123.534C152.539 124.047 152.948 124.428 153.429 124.603C153.774 124.749 154.228 124.757 154.386 124.22Z" fill="white"/>
<path d="M162.4 127.084C162.524 127.468 162.691 127.831 162.896 128.163C163.28 128.62 163.801 128.339 164.267 128.228C164.689 128.149 165.122 128.207 165.518 128.395C165.915 128.584 166.262 128.896 166.521 129.299C166.34 128.233 165.946 127.234 165.372 126.385C164.798 125.537 164.06 124.864 163.221 124.423C162.124 123.894 160.968 123.842 159.827 123.795L159.63 123.855C160.132 125.586 161.709 125.547 162.4 127.084Z" fill="white"/>
<path d="M128.458 130.624L128.461 130.632C128.48 130.588 128.499 130.545 128.518 130.501L128.458 130.624Z" fill="#E6E6E6"/>
<path d="M127.243 133.411C126.977 133.981 126.749 134.574 126.561 135.185C126.31 136.175 126.145 137.192 126.066 138.221C126.004 138.806 125.985 139.553 126.295 139.839C126.384 139.908 126.491 139.938 126.597 139.921C126.703 139.904 126.799 139.842 126.869 139.746C127.041 139.531 127.182 139.283 127.286 139.013C127.894 137.772 128.367 136.445 128.691 135.063C128.988 133.607 128.985 131.893 128.461 130.632C128.055 131.558 127.649 132.485 127.243 133.411Z" fill="white"/>
<path d="M115.514 59.1701C115.708 59.3936 115.952 59.5454 116.217 59.6066C116.482 59.6679 116.756 59.636 117.006 59.5149C117.524 59.2469 117.998 58.8756 118.41 58.417C118.75 58.1187 119.039 57.7455 119.26 57.3179C119.382 57.0624 119.461 56.7808 119.49 56.4894C119.52 56.198 119.501 55.9025 119.434 55.6198C119.242 54.9541 118.755 54.731 118.324 54.5799C117.635 54.338 116.947 54.0961 116.258 53.8543L116.756 53.3224C116.243 52.9966 115.676 53.6013 115.356 54.3499C115.15 54.8388 115.007 55.3609 114.931 55.8994C114.759 57.0744 114.927 58.4737 115.514 59.1701Z" fill="#E6E6E6"/>
<path d="M127.675 54.3356C127.869 54.589 128.138 54.7455 128.426 54.7733C128.714 54.801 129 54.698 129.226 54.485C129.421 54.3118 129.583 54.0921 129.701 53.84C129.819 53.5879 129.891 53.3092 129.912 53.0219C129.961 52.3803 129.693 51.6672 129.31 51.6118L129.398 51.0111C128.661 50.8535 127.754 50.8219 127.359 51.8818C127.226 52.2878 127.185 52.7282 127.24 53.1588C127.296 53.5894 127.446 53.9952 127.675 54.3356Z" fill="#E6E6E6"/>
<path d="M126.051 22.3903C121.73 21.8131 117.392 23.2922 113.992 26.5023C110.592 29.7124 108.408 34.3905 107.921 39.5074C106.906 50.1629 111.646 73.3017 120.289 82.8801C124.358 64.5286 138.619 53.6435 140.506 43.8601C142.522 33.4062 135.049 23.5922 126.051 22.3903Z" fill="#1F9BE6"/>
<path d="M123.062 46.0786C126.016 46.0786 128.41 43.2436 128.41 39.7464C128.41 36.2493 126.016 33.4143 123.062 33.4143C120.109 33.4143 117.715 36.2493 117.715 39.7464C117.715 43.2436 120.109 46.0786 123.062 46.0786Z" fill="white"/>
<path d="M117.44 92.0102C119.374 92.0102 120.942 90.1534 120.942 87.8628C120.942 85.5723 119.374 83.7154 117.44 83.7154C115.506 83.7154 113.938 85.5723 113.938 87.8628C113.938 90.1534 115.506 92.0102 117.44 92.0102Z" fill="#1F9BE6"/>
<path opacity="0.2" d="M127.487 35.2098C128.089 35.638 128.613 36.2025 129.031 36.871C129.449 37.5394 129.751 38.2988 129.921 39.1056C130.091 39.9124 130.125 40.751 130.021 41.5734C129.917 42.3958 129.678 43.1859 129.316 43.8987C128.954 44.6114 128.478 45.2328 127.913 45.7274C127.349 46.222 126.707 46.5801 126.026 46.7813C124.65 47.1875 123.194 46.9298 121.978 46.0648C123.218 46.3913 124.515 46.1848 125.637 45.4823C126.76 44.7798 127.635 43.6271 128.105 42.2306C128.576 40.8341 128.611 39.2849 128.205 37.8603C127.799 36.4357 126.978 35.2286 125.89 34.4553C126.453 34.6031 126.992 34.8579 127.487 35.2098Z" fill="#231F20"/>
<path opacity="0.2" d="M140.526 43.8805C138.64 53.6639 124.379 64.5491 120.31 82.9006C119.497 81.9911 118.742 81.0117 118.051 79.9704C122.624 62.7204 135.997 52.2388 137.82 42.7863C139.452 34.3261 134.868 26.2858 128.291 22.8894C136.253 25.2593 142.374 34.3005 140.526 43.8805Z" fill="#231F20"/>
<path d="M75.942 47.0974C72.6971 46.6639 69.4396 47.7747 66.8863 50.1854C64.3329 52.596 62.6928 56.1091 62.3268 59.9518C61.5645 67.9537 65.1245 85.3301 71.615 92.5232C74.671 78.7418 85.38 70.5675 86.797 63.2205C88.3111 55.37 82.6993 48 75.942 47.0974Z" fill="#1F9BE6"/>
<path d="M73.6977 64.8865C75.9155 64.8865 77.7133 62.7575 77.7133 60.1313C77.7133 57.505 75.9155 55.376 73.6977 55.376C71.48 55.376 69.6822 57.505 69.6822 60.1313C69.6822 62.7575 71.48 64.8865 73.6977 64.8865Z" fill="white"/>
<path d="M69.4755 99.3796C70.9281 99.3796 72.1057 97.9851 72.1057 96.265C72.1057 94.5449 70.9281 93.1504 69.4755 93.1504C68.023 93.1504 66.8454 94.5449 66.8454 96.265C66.8454 97.9851 68.023 99.3796 69.4755 99.3796Z" fill="#1F9BE6"/>
<path opacity="0.2" d="M77.0202 56.7244C77.4722 57.046 77.8663 57.4699 78.18 57.9719C78.4936 58.4739 78.7207 59.0441 78.8483 59.65C78.9758 60.2559 79.0014 60.8856 78.9234 61.5032C78.8454 62.1208 78.6655 62.7142 78.3939 63.2494C78.1223 63.7847 77.7643 64.2514 77.3404 64.6228C76.9165 64.9942 76.435 65.2631 75.9234 65.4142C75.4117 65.5652 74.8799 65.5955 74.3584 65.5032C73.8369 65.4108 73.3358 65.1978 72.8838 64.8762C73.8145 65.1213 74.7886 64.9663 75.6316 64.4387C76.4746 63.9111 77.1315 63.0455 77.4848 61.9968C77.8381 60.948 77.8647 59.7847 77.5598 58.7148C77.255 57.645 76.6385 56.7386 75.8208 56.1578C76.2438 56.2688 76.6489 56.4601 77.0202 56.7244Z" fill="#231F20"/>
<path opacity="0.2" d="M86.8127 63.2358C85.3957 70.5829 74.6867 78.7572 71.6307 92.5386C71.0203 91.8556 70.4534 91.1201 69.9346 90.3381C73.3687 77.384 83.4111 69.5126 84.7802 62.4141C86.0055 56.0608 82.5635 50.0228 77.6246 47.4722C83.6032 49.2519 88.2002 56.0416 86.8127 63.2358Z" fill="#231F20"/>
<path d="M201.661 219.358H197.252L195.155 199.219L201.662 199.22L201.661 219.358Z" fill="#A0616A"/>
<path d="M204.033 229.271H200.904L200.346 225.774L198.916 229.271H190.618C190.22 229.271 189.833 229.121 189.513 228.842C189.192 228.563 188.956 228.17 188.837 227.72C188.719 227.27 188.725 226.788 188.855 226.342C188.984 225.897 189.231 225.513 189.558 225.245L196.184 219.826V216.29L203.154 216.782L204.033 229.271Z" fill="#2F2E41"/>
<path d="M184.584 219.358H180.175L178.078 199.219L184.585 199.22L184.584 219.358Z" fill="#A0616A"/>
<path d="M186.956 229.271H183.827L183.269 225.774L181.839 229.271H173.541C173.143 229.271 172.756 229.121 172.436 228.842C172.115 228.563 171.879 228.17 171.76 227.72C171.642 227.27 171.648 226.788 171.778 226.342C171.907 225.897 172.154 225.513 172.481 225.245L179.107 219.826V216.29L186.077 216.782L186.956 229.271Z" fill="#2F2E41"/>
<path d="M167.834 166.188C168.678 167.686 177.857 208.886 177.857 208.886L185.995 209.985L185.029 199.619L183.553 181.275L181.266 169.03C181.266 169.03 189.341 147.269 189.851 145.536L190.214 144.292L192.737 171.403C193.036 172.371 193.167 173.401 193.121 174.431C193.045 176.124 194.479 201.602 194.479 201.602L195.169 210.739L202.142 211.886L204.971 196.077C207.333 190.941 205.979 172.692 205.013 170.994C204.047 169.295 204.431 157.465 204.431 157.465C205.664 156.951 213.021 127.246 209.341 127.421C209.577 125.837 209.763 124.424 209.763 124.424L203.376 118.324L187.392 113.403L183.359 111.11C183.359 111.11 176.156 126.882 176.228 127.666C176.327 128.659 176.135 129.663 175.684 130.508L168.412 159.329C168.412 159.329 166.982 164.674 167.834 166.188Z" fill="#2F2E41"/>
<path d="M207.992 63.0584L205.449 56.6649L196.794 57.0588L193.971 63.7102C193.971 63.7102 185.903 75.1214 185.642 78.8319C185.314 83.4987 188.043 106.37 185.314 104.888C185.314 104.888 178.879 113.832 182.687 113.832C186.494 113.832 203.718 126.636 204.849 128.076C205.979 129.516 211.024 130.45 210.601 127.444C210.178 124.438 207.992 108.18 207.992 108.18L213.909 82.6171C215.612 77.098 216.142 70.9073 212.293 67.1999L207.992 63.0584Z" fill="#CCCCCC"/>
<path d="M175.933 44.2406C174.776 43.6965 173.539 43.4276 172.294 43.4495C171.048 43.4714 169.819 43.7835 168.675 44.3681C167.532 44.9526 166.497 45.7982 165.629 46.8565C164.761 47.9148 164.078 49.1651 163.619 50.536C161.686 56.3013 161.366 70.0694 164.962 76.9698C169.587 67.4577 178.942 63.9454 181.25 58.8236C183.715 53.3507 180.802 46.5292 175.933 44.2406Z" fill="#1F9BE6"/>
<path d="M172.04 57.0544C173.749 57.0544 175.133 55.4145 175.133 53.3915C175.133 51.3685 173.749 49.7285 172.04 49.7285C170.332 49.7285 168.947 51.3685 168.947 53.3915C168.947 55.4145 170.332 57.0544 172.04 57.0544Z" fill="white"/>
<path d="M162.733 81.6381C163.852 81.6381 164.759 80.564 164.759 79.239C164.759 77.9139 163.852 76.8398 162.733 76.8398C161.615 76.8398 160.707 77.9139 160.707 79.239C160.707 80.564 161.615 81.6381 162.733 81.6381Z" fill="#1F9BE6"/>
<path opacity="0.2" d="M175.092 51.6545C175.658 52.3561 175.966 53.2954 175.949 54.2659C175.931 55.2365 175.588 56.1591 174.997 56.8308C174.405 57.5026 173.612 57.8686 172.792 57.8485C171.972 57.8283 171.193 57.4237 170.625 56.7235C171.275 57.1286 172.026 57.2465 172.742 57.0561C173.459 56.8658 174.095 56.3797 174.537 55.6847C174.978 54.9898 175.197 54.1314 175.153 53.2632C175.109 52.395 174.805 51.5737 174.297 50.9462C174.592 51.13 174.861 51.3692 175.092 51.6545Z" fill="#231F20"/>
<path opacity="0.2" d="M181.259 58.8388C178.951 63.9606 169.596 67.4729 164.972 76.985C164.634 76.3312 164.339 75.6488 164.086 74.9434C168.85 66.1367 177.659 62.6899 179.888 57.7414C181.884 53.3123 180.356 48.0003 177.12 44.922C181.26 47.6762 183.518 53.8234 181.259 58.8388Z" fill="#231F20"/>
<path d="M161.82 78.4129C162.291 78.2979 162.778 78.3066 163.246 78.4384C163.714 78.5702 164.151 78.8219 164.528 79.1756C164.905 79.5294 165.212 79.9768 165.427 80.4861C165.642 80.9955 165.76 81.5544 165.773 82.1237L172.79 85.3135L172.193 90.8363L162.337 86.1668C161.528 86.129 160.758 85.7411 160.175 85.0766C159.591 84.4121 159.234 83.5171 159.17 82.5614C159.106 81.6056 159.341 80.6554 159.83 79.8908C160.318 79.1262 161.026 78.6003 161.82 78.4128L161.82 78.4129Z" fill="#A0616A"/>
<path d="M210.853 67.0319C210.114 66.4978 209.294 66.1416 208.438 65.9838C207.583 65.8261 206.71 65.8698 205.869 66.1126C205.028 66.3554 204.235 66.7924 203.537 67.3986C202.839 68.0047 202.249 68.7681 201.801 69.645L191.728 89.3422L168.954 82.9496L166.88 89.6949L196.044 106.054L210.814 78.1946C213.026 74.5145 214.109 69.3855 210.853 67.0319Z" fill="#CCCCCC"/>
<path d="M211.229 42.8924C211.23 44.7909 210.837 46.6604 210.085 48.3371C209.333 50.0137 208.245 51.4461 206.916 52.5085C205.588 53.5709 204.059 54.2309 202.465 54.4304C200.87 54.63 199.259 54.363 197.772 53.653C196.286 52.943 194.969 51.8116 193.937 50.3582C192.906 48.9048 192.192 47.1738 191.857 45.3172C191.522 43.4605 191.578 41.535 192.018 39.7097C192.459 37.8843 193.271 36.2149 194.384 34.848L194.431 34.7924C194.509 34.6949 194.587 34.5975 194.67 34.5047C194.67 34.5047 194.671 34.5046 194.671 34.5044C194.672 34.5041 194.672 34.5038 194.672 34.5034C194.673 34.5029 194.673 34.5024 194.673 34.5018C194.673 34.5013 194.674 34.5007 194.673 34.5001C194.775 34.3887 194.877 34.2774 194.983 34.1707C196.398 32.7014 198.141 31.7463 200.003 31.4196C201.865 31.093 203.766 31.4087 205.481 32.3289C207.195 33.2492 208.649 34.735 209.668 36.6084C210.688 38.4819 211.23 40.6636 211.229 42.8924V42.8924Z" fill="#2F2E41"/>
<path d="M199.022 55.3012C203.558 55.3012 207.235 50.947 207.235 45.5758C207.235 40.2046 203.558 35.8504 199.022 35.8504C194.487 35.8504 190.81 40.2046 190.81 45.5758C190.81 50.947 194.487 55.3012 199.022 55.3012Z" fill="#9E616A"/>
<path d="M207.743 48.3493L206.383 48.0647C205.622 47.9011 204.922 47.4664 204.376 46.8189C203.83 46.1713 203.464 45.3418 203.327 44.4412L201.999 47.0763L201.941 47.0991C198.778 48.3429 195.486 47.9709 191.881 45.9634C190.85 45.3843 189.85 44.7314 188.887 44.0083L188.815 43.9557L188.81 43.8567C188.626 40.693 189.225 38.0499 190.498 36.4144C190.987 35.799 191.58 35.3129 192.238 34.9879C192.897 34.6629 193.606 34.5063 194.319 34.5284C194.369 34.5127 194.416 34.4822 194.454 34.4397C194.473 34.4238 194.491 34.408 194.509 34.393V34.3767L194.603 34.3241C194.806 34.2113 195.013 34.1032 195.219 34.0045C196.844 33.2595 198.614 33.0726 200.325 33.4653C202.035 33.858 203.618 34.8143 204.89 36.2243C207.42 39.0842 208.58 43.8837 207.777 48.1676L207.743 48.3493Z" fill="#2F2E41"/>
<path d="M225.066 56.6354C222.271 54.9272 225.865 48.7275 225.143 45.1027C224.421 41.4778 219.22 40.312 218.888 36.6083C218.557 32.9047 217.777 29.0848 215.714 26.2744C214.395 24.4786 212.452 23.1529 210.451 23.3778C209.774 23.4539 209.119 23.7019 208.53 24.1048C207.942 24.5078 207.433 25.0563 207.039 25.7129C206.646 26.3696 206.376 27.1189 206.25 27.91C206.123 28.7011 206.141 29.5152 206.304 30.2971C205.734 29.3412 204.26 29.5484 203.895 30.6356C203.571 31.6021 204.287 32.7728 205.131 32.8583C206.234 34.4723 207.498 36.1851 209.227 36.5106C209.502 36.5855 209.789 36.5854 210.064 36.5101C210.34 36.4348 210.597 36.2864 210.817 36.0761C211.223 35.6136 211.255 34.6888 210.773 34.3431C212.945 35.3652 214.219 38.1471 214.542 40.8892C214.864 43.6313 214.418 46.4058 214.124 49.1524C213.83 51.899 213.704 54.7882 214.613 57.3388C215.687 60.3523 218.161 62.5121 220.861 63.2048C223.561 63.8974 226.436 63.2205 228.879 61.6953C231.323 60.17 233.361 57.8416 235.026 55.2311C232.158 57.6423 228.191 58.5456 225.066 56.6354Z" fill="#2F2E41"/>
<path d="M207.394 48.079C207.394 48.079 204.961 37.3254 194.532 34.8434C194.521 34.8388 194.482 34.8202 194.431 34.7924C194.399 34.7692 194.36 34.746 194.321 34.7228C194.438 34.6439 194.552 34.5744 194.67 34.5047C194.67 34.5047 194.671 34.5046 194.671 34.5044C194.672 34.5042 194.672 34.5038 194.672 34.5034C194.673 34.5029 194.673 34.5024 194.673 34.5019C194.673 34.5013 194.674 34.5007 194.674 34.5001C194.775 34.3887 194.877 34.2774 194.983 34.1707L195.281 34.1846C195.281 34.1846 205.745 32.2223 207.394 48.079Z" fill="#FD6584"/>
<path opacity="0.2" d="M201.947 82.5846L196.057 90.6655L186.325 87.2622L196.935 93.0521L201.947 82.5846Z" fill="black"/>
<path d="M237.3 229.88L146.743 230C146.639 230 146.54 229.951 146.467 229.864C146.394 229.777 146.353 229.659 146.353 229.537C146.353 229.414 146.394 229.297 146.467 229.21C146.54 229.123 146.639 229.074 146.743 229.074L237.3 228.954C237.404 228.954 237.503 229.003 237.577 229.09C237.65 229.177 237.691 229.295 237.691 229.417C237.691 229.54 237.65 229.658 237.577 229.745C237.503 229.832 237.404 229.88 237.3 229.88Z" fill="#CACACA"/>
<path d="M241.275 157.919C237.035 157.919 232.387 157.73 227.332 157.35C201.187 155.384 167.32 148.548 131.972 138.103C96.6229 127.657 64.0148 114.849 40.1545 102.039C28.5314 95.7983 19.6108 89.8912 13.6406 84.4813C7.3198 78.754 4.55499 73.7618 5.42266 69.6438C7.11329 61.6213 22.0829 59.8662 34.3433 59.8065L34.3474 60.9732C17.5108 61.0551 7.57799 64.2348 6.3787 69.9264C4.85101 77.1754 17.3102 88.4925 40.5613 100.976C64.3692 113.759 96.9173 126.542 132.21 136.971C167.503 147.4 201.307 154.224 227.395 156.186C252.872 158.102 268.361 155.043 269.889 147.794C271.157 141.775 262.796 132.909 246.345 122.828L246.798 121.792C258.751 129.117 272.626 139.623 270.845 148.077C269.977 152.195 265.556 155.063 257.703 156.602C253.228 157.48 247.73 157.919 241.275 157.919Z" fill="#1F9BE6"/>
</g>
<defs>
<clipPath id="clip0_117_352">
<rect width="271" height="230" fill="white"/>
</clipPath>
</defs>
</svg>
